<svg width="148" height="22" viewBox="0 0 148 22" fill="none" xmlns="http://www.w3.org/2000/svg">
<g filter="url(#filter0_i_16_49)">
<path d="M0.823041 21V1H10.6897V3.26667H3.35637V7.53333H9.13415V9.8H3.35637V18.7333H10.6897V21H0.823041ZM22.823 21V0.333332L32.1119 13.1333L41.223 0.333332V21H38.6897V11.7556C38.6897 11.1481 38.6971 10.4889 38.7119 9.77778C38.7267 9.05185 38.7786 8.22963 38.8675 7.31111C38.4082 8.12593 37.9564 8.84444 37.5119 9.46667C37.0823 10.0741 36.6897 10.637 36.3342 11.1556L32.023 17.2667L27.5786 11.1556C27.2082 10.637 26.8082 10.0741 26.3786 9.46667C25.9638 8.84444 25.5193 8.12593 25.0453 7.31111C25.1342 8.22963 25.186 9.05185 25.2008 9.77778C25.2156 10.4889 25.223 11.1481 25.223 11.7556V21H22.823ZM59.8675 21.1778C58.6527 21.1778 57.5416 20.8741 56.5342 20.2667C55.5267 19.6444 54.7193 18.8148 54.1119 17.7778C53.5193 16.7407 53.223 15.5926 53.223 14.3333C53.223 13.0741 53.5193 11.9259 54.1119 10.8889C54.7193 9.85185 55.5267 9.02963 56.5342 8.42222C57.5416 7.8 58.6527 7.48889 59.8675 7.48889C60.786 7.48889 61.6453 7.65926 62.4453 8C63.2601 8.34074 63.9638 8.81481 64.5564 9.42222V7.66667H66.7786V21H64.5564V19.2444C63.9638 19.837 63.2601 20.3111 62.4453 20.6667C61.6453 21.0074 60.786 21.1778 59.8675 21.1778ZM60.1786 19C61.023 19 61.786 18.7926 62.4675 18.3778C63.1638 17.9481 63.7119 17.3852 64.1119 16.6889C64.5267 15.9778 64.7342 15.1926 64.7342 14.3333C64.7342 13.4741 64.5267 12.6963 64.1119 12C63.7119 11.2889 63.1638 10.7259 62.4675 10.3111C61.786 9.88148 61.023 9.66667 60.1786 9.66667C59.3342 9.66667 58.5638 9.88148 57.8675 10.3111C57.186 10.7259 56.6379 11.2889 56.223 12C55.823 12.6963 55.623 13.4741 55.623 14.3333C55.623 15.1926 55.823 15.9778 56.223 16.6889C56.6379 17.3852 57.186 17.9481 57.8675 18.3778C58.5638 18.7926 59.3342 19 60.1786 19ZM82.4758 21.2667C81.7943 21.2667 81.061 21.1407 80.2758 20.8889C79.5054 20.6222 78.8388 20.1852 78.2758 19.5778L78.9425 16.9556C79.3573 17.6519 79.8906 18.2074 80.5425 18.6222C81.1943 19.0222 81.8906 19.2222 82.6314 19.2222C83.3425 19.2222 83.8758 19.0519 84.2314 18.7111C84.5869 18.3556 84.7647 17.9259 84.7647 17.4222C84.7647 16.8444 84.5721 16.4222 84.1869 16.1556C83.8166 15.8889 83.4832 15.7037 83.1869 15.6L81.3869 14.9111C81.061 14.7778 80.6684 14.5852 80.2092 14.3333C79.7499 14.0667 79.3499 13.6889 79.0092 13.2C78.6684 12.7111 78.498 12.0741 78.498 11.2889C78.498 10.5778 78.6684 9.92593 79.0092 9.33333C79.3499 8.74074 79.8314 8.27407 80.4536 7.93333C81.0758 7.57778 81.8092 7.4 82.6536 7.4C83.3203 7.4 84.0166 7.51852 84.7425 7.75556C85.4684 7.99259 86.0832 8.39259 86.5869 8.95555L85.9203 11.5778C85.5647 10.9259 85.0832 10.4074 84.4758 10.0222C83.8684 9.63704 83.2388 9.44444 82.5869 9.44444C81.9795 9.44444 81.498 9.61481 81.1425 9.95555C80.8017 10.2963 80.6314 10.6889 80.6314 11.1333C80.6314 11.4889 80.7499 11.8074 80.9869 12.0889C81.224 12.3704 81.5795 12.6 82.0536 12.7778L83.8536 13.4667C84.1795 13.5852 84.5795 13.7778 85.0536 14.0444C85.5425 14.3111 85.9721 14.6963 86.3425 15.2C86.7129 15.7037 86.898 16.3852 86.898 17.2444C86.898 18.4444 86.4758 19.4148 85.6314 20.1556C84.8017 20.8963 83.7499 21.2667 82.4758 21.2667ZM99.9307 21V9.66667H96.9085V7.66667H99.9973V3.22222H102.264V7.66667H105.575V9.66667H102.331V21H99.9307ZM122.074 21.2667C120.682 21.2667 119.43 20.9556 118.319 20.3333C117.223 19.7111 116.356 18.8667 115.719 17.8C115.097 16.7185 114.786 15.5185 114.786 14.2C114.786 12.9407 115.089 11.8 115.697 10.7778C116.304 9.74074 117.119 8.91852 118.141 8.31111C119.178 7.7037 120.319 7.4 121.563 7.4C122.793 7.4 123.919 7.6963 124.941 8.28889C125.963 8.86667 126.778 9.65185 127.386 10.6444C127.993 11.637 128.297 12.763 128.297 14.0222V15H119.586C119.2 15 118.808 14.9852 118.408 14.9556C118.008 14.9259 117.615 14.8815 117.23 14.8222C117.393 16.0074 117.926 17 118.83 17.8C119.749 18.6 120.837 19 122.097 19C122.941 19 123.726 18.8074 124.452 18.4222C125.178 18.037 125.763 17.5259 126.208 16.8889L126.874 19.6222C126.237 20.1407 125.504 20.5481 124.674 20.8444C123.86 21.1259 122.993 21.2667 122.074 21.2667ZM117.163 13.2C117.963 13.0667 118.771 13 119.586 13H124.008C124.334 13 124.652 13.0148 124.963 13.0444C125.289 13.0593 125.615 13.0815 125.941 13.1111C125.734 12.0741 125.215 11.2222 124.386 10.5556C123.556 9.87407 122.615 9.53333 121.563 9.53333C120.482 9.53333 119.534 9.8963 118.719 10.6222C117.904 11.3333 117.386 12.1926 117.163 13.2ZM139.5 21V7.66667H141.722V10.1111C142.196 9.32593 142.826 8.7037 143.611 8.24444C144.396 7.77037 145.33 7.53333 146.411 7.53333L147.011 9.93333C146.73 9.84444 146.404 9.8 146.033 9.8C144.789 9.8 143.789 10.2 143.033 11C142.278 11.7852 141.9 12.9111 141.9 14.3778V21H139.5Z" fill="#4169E1"/>
</g>
<defs>
<filter id="filter0_i_16_49" x="0.823029" y="0.333328" width="146.188" height="24.9333" filterUnits="userSpaceOnUse" color-interpolation-filters="sRGB">
<feFlood flood-opacity="0" result="BackgroundImageFix"/>
<feBlend mode="normal" in="SourceGraphic" in2="BackgroundImageFix" result="shape"/>
<feColorMatrix in="SourceAlpha" type="matrix" values="0 0 0 0 0 0 0 0 0 0 0 0 0 0 0 0 0 0 127 0" result="hardAlpha"/>
<feOffset dy="4"/>
<feGaussianBlur stdDeviation="2"/>
<feComposite in2="hardAlpha" operator="arithmetic" k2="-1" k3="1"/>
<feColorMatrix type="matrix" values="0 0 0 0 0 0 0 0 0 0 0 0 0 0 0 0 0 0 0.25 0"/>
<feBlend mode="normal" in2="shape" result="effect1_innerShadow_16_49"/>
</filter>
</defs>
</svg>
