<svg width="154" height="104" viewBox="0 0 154 104" fill="none" xmlns="http://www.w3.org/2000/svg">
<g filter="url(#filter0_i_15_33)">
<path d="M4.82304 93V73H14.6897V75.2667H7.35637V79.5333H13.1342V81.8H7.35637V90.7333H14.6897V93H4.82304ZM26.823 93V72.3333L36.1119 85.1333L45.223 72.3333V93H42.6897V83.7556C42.6897 83.1482 42.6971 82.4889 42.7119 81.7778C42.7267 81.0519 42.7786 80.2296 42.8675 79.3111C42.4082 80.1259 41.9564 80.8445 41.5119 81.4667C41.0823 82.0741 40.6897 82.637 40.3342 83.1556L36.023 89.2667L31.5786 83.1556C31.2082 82.637 30.8082 82.0741 30.3786 81.4667C29.9638 80.8445 29.5193 80.1259 29.0453 79.3111C29.1342 80.2296 29.186 81.0519 29.2008 81.7778C29.2156 82.4889 29.223 83.1482 29.223 83.7556V93H26.823ZM63.8675 93.1778C62.6527 93.1778 61.5416 92.8741 60.5342 92.2667C59.5267 91.6445 58.7193 90.8148 58.1119 89.7778C57.5193 88.7407 57.223 87.5926 57.223 86.3333C57.223 85.0741 57.5193 83.9259 58.1119 82.8889C58.7193 81.8519 59.5267 81.0296 60.5342 80.4222C61.5416 79.8 62.6527 79.4889 63.8675 79.4889C64.786 79.4889 65.6453 79.6593 66.4453 80C67.2601 80.3407 67.9638 80.8148 68.5564 81.4222V79.6667H70.7786V93H68.5564V91.2445C67.9638 91.837 67.2601 92.3111 66.4453 92.6667C65.6453 93.0074 64.786 93.1778 63.8675 93.1778ZM64.1786 91C65.023 91 65.786 90.7926 66.4675 90.3778C67.1638 89.9482 67.7119 89.3852 68.1119 88.6889C68.5267 87.9778 68.7342 87.1926 68.7342 86.3333C68.7342 85.4741 68.5267 84.6963 68.1119 84C67.7119 83.2889 67.1638 82.7259 66.4675 82.3111C65.786 81.8815 65.023 81.6667 64.1786 81.6667C63.3342 81.6667 62.5638 81.8815 61.8675 82.3111C61.186 82.7259 60.6379 83.2889 60.223 84C59.823 84.6963 59.623 85.4741 59.623 86.3333C59.623 87.1926 59.823 87.9778 60.223 88.6889C60.6379 89.3852 61.186 89.9482 61.8675 90.3778C62.5638 90.7926 63.3342 91 64.1786 91ZM86.4758 93.2667C85.7943 93.2667 85.061 93.1407 84.2758 92.8889C83.5054 92.6222 82.8388 92.1852 82.2758 91.5778L82.9425 88.9556C83.3573 89.6519 83.8906 90.2074 84.5425 90.6222C85.1943 91.0222 85.8906 91.2222 86.6314 91.2222C87.3425 91.2222 87.8758 91.0519 88.2314 90.7111C88.5869 90.3556 88.7647 89.9259 88.7647 89.4222C88.7647 88.8445 88.5721 88.4222 88.1869 88.1556C87.8166 87.8889 87.4832 87.7037 87.1869 87.6L85.3869 86.9111C85.061 86.7778 84.6684 86.5852 84.2092 86.3333C83.7499 86.0667 83.3499 85.6889 83.0092 85.2C82.6684 84.7111 82.498 84.0741 82.498 83.2889C82.498 82.5778 82.6684 81.9259 83.0092 81.3333C83.3499 80.7407 83.8314 80.2741 84.4536 79.9333C85.0758 79.5778 85.8092 79.4 86.6536 79.4C87.3203 79.4 88.0166 79.5185 88.7425 79.7556C89.4684 79.9926 90.0832 80.3926 90.5869 80.9556L89.9203 83.5778C89.5647 82.9259 89.0832 82.4074 88.4758 82.0222C87.8684 81.637 87.2388 81.4445 86.5869 81.4445C85.9795 81.4445 85.498 81.6148 85.1425 81.9556C84.8017 82.2963 84.6314 82.6889 84.6314 83.1333C84.6314 83.4889 84.7499 83.8074 84.9869 84.0889C85.224 84.3704 85.5795 84.6 86.0536 84.7778L87.8536 85.4667C88.1795 85.5852 88.5795 85.7778 89.0536 86.0445C89.5425 86.3111 89.9721 86.6963 90.3425 87.2C90.7129 87.7037 90.898 88.3852 90.898 89.2445C90.898 90.4445 90.4758 91.4148 89.6314 92.1556C88.8017 92.8963 87.7499 93.2667 86.4758 93.2667ZM103.931 93V81.6667H100.908V79.6667H103.997V75.2222H106.264V79.6667H109.575V81.6667H106.331V93H103.931ZM126.074 93.2667C124.682 93.2667 123.43 92.9556 122.319 92.3333C121.223 91.7111 120.356 90.8667 119.719 89.8C119.097 88.7185 118.786 87.5185 118.786 86.2C118.786 84.9407 119.089 83.8 119.697 82.7778C120.304 81.7407 121.119 80.9185 122.141 80.3111C123.178 79.7037 124.319 79.4 125.563 79.4C126.793 79.4 127.919 79.6963 128.941 80.2889C129.963 80.8667 130.778 81.6519 131.386 82.6445C131.993 83.637 132.297 84.763 132.297 86.0222V87H123.586C123.2 87 122.808 86.9852 122.408 86.9556C122.008 86.9259 121.615 86.8815 121.23 86.8222C121.393 88.0074 121.926 89 122.83 89.8C123.749 90.6 124.837 91 126.097 91C126.941 91 127.726 90.8074 128.452 90.4222C129.178 90.037 129.763 89.5259 130.208 88.8889L130.874 91.6222C130.237 92.1407 129.504 92.5482 128.674 92.8445C127.86 93.1259 126.993 93.2667 126.074 93.2667ZM121.163 85.2C121.963 85.0667 122.771 85 123.586 85H128.008C128.334 85 128.652 85.0148 128.963 85.0445C129.289 85.0593 129.615 85.0815 129.941 85.1111C129.734 84.0741 129.215 83.2222 128.386 82.5556C127.556 81.8741 126.615 81.5333 125.563 81.5333C124.482 81.5333 123.534 81.8963 122.719 82.6222C121.904 83.3333 121.386 84.1926 121.163 85.2ZM143.5 93V79.6667H145.722V82.1111C146.196 81.3259 146.826 80.7037 147.611 80.2445C148.396 79.7704 149.33 79.5333 150.411 79.5333L151.011 81.9333C150.73 81.8445 150.404 81.8 150.033 81.8C148.789 81.8 147.789 82.2 147.033 83C146.278 83.7852 145.9 84.9111 145.9 86.3778V93H143.5Z" fill="#4169E1"/>
</g>
<g filter="url(#filter1_i_15_33)">
<path d="M62.0242 52.0611C58.607 55.0563 54.8355 57.0006 50.7095 57.8943C46.5404 58.7407 42.4519 58.5379 38.4442 57.2859C34.4364 56.0339 30.8988 53.7318 27.8312 50.3794C24.8069 47.0743 22.8551 43.4248 21.9757 39.4308C21.1445 35.3946 21.3612 31.461 22.6258 27.6299C23.8953 23.7094 26.1905 20.2938 29.5114 17.383C32.6879 14.5989 36.1275 12.8604 39.8301 12.1676C43.5809 11.4327 47.275 11.7258 50.9125 13.0471C54.5981 14.3262 57.8883 16.5474 60.783 19.7109C61.215 20.183 61.6662 20.7235 62.1366 21.3323C62.5637 21.8938 63.0291 22.592 63.5328 23.4268L34.5829 48.801L29.7224 43.4892L55.2069 21.1523L54.7039 25.2944C52.6301 23.028 50.4712 21.4743 48.2272 20.6334C45.9401 19.7452 43.6616 19.53 41.3919 19.9878C39.079 20.3985 36.8637 21.5318 34.746 23.388C32.5321 25.3285 31.0149 27.5091 30.1944 29.9299C29.374 32.3507 29.2842 34.8117 29.9252 37.313C30.5661 39.8143 31.9451 42.2217 34.0621 44.5353C36.2223 46.8961 38.6047 48.5517 41.209 49.5022C43.7702 50.4055 46.3948 50.5725 49.0829 50.0032C51.7278 49.3867 54.2054 48.066 56.5156 46.0411C58.4408 44.3537 59.895 42.4835 60.8784 40.4304C61.91 38.3351 62.3984 36.1202 62.3438 33.7857L70.3547 34.2942C70.4465 37.6171 69.7428 40.829 68.2436 43.9297C66.7926 46.9883 64.7195 49.6988 62.0242 52.0611Z" fill="#4169E1"/>
</g>
<g filter="url(#filter2_i_15_33)">
<path d="M62.238 74.1519V33.8862L81.6911 18.8394C87.6598 19.2456 92.2067 20.7456 95.3317 23.3394C96.9567 24.6831 98.2536 26.2769 99.2223 28.1206L111.222 18.8394C117.129 19.2456 121.675 20.7456 124.863 23.3394C128.738 26.4956 130.675 31.1362 130.675 37.2612V69.9331L121.769 74.1519H121.3V37.2612C121.3 33.355 120.285 30.5425 118.254 28.8237C116.222 27.105 113.879 26.2456 111.222 26.2456C108.285 26.2456 105.847 27.1987 103.91 29.105C102.066 30.9175 101.144 33.6362 101.144 37.2612V69.9331L92.238 74.1519H91.7692V37.2612C91.7692 33.355 90.7536 30.5425 88.7223 28.8237C86.6911 27.105 84.3473 26.2456 81.6911 26.2456C78.7536 26.2456 76.3161 27.1987 74.3786 29.105C72.5348 30.9175 71.613 33.6362 71.613 37.2612V69.9331L62.7067 74.1519H62.238Z" fill="#4169E1"/>
</g>
<defs>
<filter id="filter0_i_15_33" x="4.82304" y="72.3333" width="146.188" height="24.9333" filterUnits="userSpaceOnUse" color-interpolation-filters="sRGB">
<feFlood flood-opacity="0" result="BackgroundImageFix"/>
<feBlend mode="normal" in="SourceGraphic" in2="BackgroundImageFix" result="shape"/>
<feColorMatrix in="SourceAlpha" type="matrix" values="0 0 0 0 0 0 0 0 0 0 0 0 0 0 0 0 0 0 127 0" result="hardAlpha"/>
<feOffset dy="4"/>
<feGaussianBlur stdDeviation="2"/>
<feComposite in2="hardAlpha" operator="arithmetic" k2="-1" k3="1"/>
<feColorMatrix type="matrix" values="0 0 0 0 0 0 0 0 0 0 0 0 0 0 0 0 0 0 0.25 0"/>
<feBlend mode="normal" in2="shape" result="effect1_innerShadow_15_33"/>
</filter>
<filter id="filter1_i_15_33" x="11.8238" y="3.20895" width="69.9387" height="68.7348" filterUnits="userSpaceOnUse" color-interpolation-filters="sRGB">
<feFlood flood-opacity="0" result="BackgroundImageFix"/>
<feBlend mode="normal" in="SourceGraphic" in2="BackgroundImageFix" result="shape"/>
<feColorMatrix in="SourceAlpha" type="matrix" values="0 0 0 0 0 0 0 0 0 0 0 0 0 0 0 0 0 0 127 0" result="hardAlpha"/>
<feOffset dx="4" dy="4"/>
<feGaussianBlur stdDeviation="2"/>
<feComposite in2="hardAlpha" operator="arithmetic" k2="-1" k3="1"/>
<feColorMatrix type="matrix" values="0 0 0 0 0 0 0 0 0 0 0 0 0 0 0 0 0 0 0.25 0"/>
<feBlend mode="normal" in2="shape" result="effect1_innerShadow_15_33"/>
</filter>
<filter id="filter2_i_15_33" x="62.238" y="18.8394" width="72.4375" height="59.3125" filterUnits="userSpaceOnUse" color-interpolation-filters="sRGB">
<feFlood flood-opacity="0" result="BackgroundImageFix"/>
<feBlend mode="normal" in="SourceGraphic" in2="BackgroundImageFix" result="shape"/>
<feColorMatrix in="SourceAlpha" type="matrix" values="0 0 0 0 0 0 0 0 0 0 0 0 0 0 0 0 0 0 127 0" result="hardAlpha"/>
<feOffset dx="4" dy="4"/>
<feGaussianBlur stdDeviation="2"/>
<feComposite in2="hardAlpha" operator="arithmetic" k2="-1" k3="1"/>
<feColorMatrix type="matrix" values="0 0 0 0 0 0 0 0 0 0 0 0 0 0 0 0 0 0 0.25 0"/>
<feBlend mode="normal" in2="shape" result="effect1_innerShadow_15_33"/>
</filter>
</defs>
</svg>
