<svg width="141" height="82" viewBox="0 0 141 82" fill="none" xmlns="http://www.w3.org/2000/svg">
<g filter="url(#filter0_i_16_44)">
<path d="M55.0242 54.0611C51.607 57.0563 47.8355 59.0006 43.7095 59.8943C39.5404 60.7407 35.4519 60.5379 31.4442 59.2859C27.4364 58.0339 23.8988 55.7318 20.8312 52.3794C17.8069 49.0743 15.8551 45.4248 14.9757 41.4308C14.1445 37.3946 14.3612 33.461 15.6258 29.6299C16.8953 25.7094 19.1905 22.2938 22.5114 19.383C25.6879 16.5989 29.1275 14.8604 32.8301 14.1676C36.5809 13.4327 40.275 13.7258 43.9125 15.0471C47.5981 16.3262 50.8883 18.5474 53.783 21.7109C54.215 22.183 54.6662 22.7235 55.1366 23.3323C55.5637 23.8938 56.0291 24.592 56.5328 25.4268L27.5829 50.801L22.7224 45.4892L48.2069 23.1523L47.7039 27.2944C45.6301 25.028 43.4712 23.4743 41.2272 22.6334C38.9401 21.7452 36.6616 21.53 34.3919 21.9878C32.079 22.3985 29.8637 23.5318 27.746 25.388C25.5321 27.3285 24.0149 29.5091 23.1944 31.9299C22.374 34.3507 22.2842 36.8117 22.9252 39.313C23.5661 41.8143 24.9451 44.2217 27.0621 46.5353C29.2223 48.8961 31.6047 50.5517 34.209 51.5022C36.7702 52.4055 39.3948 52.5725 42.0829 52.0032C44.7278 51.3867 47.2054 50.066 49.5156 48.0411C51.4408 46.3537 52.895 44.4835 53.8784 42.4304C54.91 40.3351 55.3984 38.1202 55.3438 35.7857L63.3547 36.2942C63.4465 39.6171 62.7428 42.829 61.2436 45.9297C59.7926 48.9883 57.7195 51.6988 55.0242 54.0611Z" fill="#4169E1"/>
</g>
<g filter="url(#filter1_i_16_44)">
<path d="M55.238 76.1519V35.8862L74.6911 20.8394C80.6598 21.2456 85.2067 22.7456 88.3317 25.3394C89.9567 26.6831 91.2536 28.2769 92.2223 30.1206L104.222 20.8394C110.129 21.2456 114.675 22.7456 117.863 25.3394C121.738 28.4956 123.675 33.1362 123.675 39.2612V71.9331L114.769 76.1519H114.3V39.2612C114.3 35.355 113.285 32.5425 111.254 30.8237C109.222 29.105 106.879 28.2456 104.222 28.2456C101.285 28.2456 98.8473 29.1987 96.9098 31.105C95.0661 32.9175 94.1442 35.6362 94.1442 39.2612V71.9331L85.238 76.1519H84.7692V39.2612C84.7692 35.355 83.7536 32.5425 81.7223 30.8237C79.6911 29.105 77.3473 28.2456 74.6911 28.2456C71.7536 28.2456 69.3161 29.1987 67.3786 31.105C65.5348 32.9175 64.613 35.6362 64.613 39.2612V71.9331L55.7067 76.1519H55.238Z" fill="#4169E1"/>
</g>
<defs>
<filter id="filter0_i_16_44" x="4.82382" y="5.20895" width="69.9387" height="68.7348" filterUnits="userSpaceOnUse" color-interpolation-filters="sRGB">
<feFlood flood-opacity="0" result="BackgroundImageFix"/>
<feBlend mode="normal" in="SourceGraphic" in2="BackgroundImageFix" result="shape"/>
<feColorMatrix in="SourceAlpha" type="matrix" values="0 0 0 0 0 0 0 0 0 0 0 0 0 0 0 0 0 0 127 0" result="hardAlpha"/>
<feOffset dx="4" dy="4"/>
<feGaussianBlur stdDeviation="2"/>
<feComposite in2="hardAlpha" operator="arithmetic" k2="-1" k3="1"/>
<feColorMatrix type="matrix" values="0 0 0 0 0 0 0 0 0 0 0 0 0 0 0 0 0 0 0.25 0"/>
<feBlend mode="normal" in2="shape" result="effect1_innerShadow_16_44"/>
</filter>
<filter id="filter1_i_16_44" x="55.238" y="20.8394" width="72.4375" height="59.3125" filterUnits="userSpaceOnUse" color-interpolation-filters="sRGB">
<feFlood flood-opacity="0" result="BackgroundImageFix"/>
<feBlend mode="normal" in="SourceGraphic" in2="BackgroundImageFix" result="shape"/>
<feColorMatrix in="SourceAlpha" type="matrix" values="0 0 0 0 0 0 0 0 0 0 0 0 0 0 0 0 0 0 127 0" result="hardAlpha"/>
<feOffset dx="4" dy="4"/>
<feGaussianBlur stdDeviation="2"/>
<feComposite in2="hardAlpha" operator="arithmetic" k2="-1" k3="1"/>
<feColorMatrix type="matrix" values="0 0 0 0 0 0 0 0 0 0 0 0 0 0 0 0 0 0 0.25 0"/>
<feBlend mode="normal" in2="shape" result="effect1_innerShadow_16_44"/>
</filter>
</defs>
</svg>
